<svg xmlns="http://www.w3.org/2000/svg" viewBox="0 0 1104.53 916.32"><defs><style>.cls-1{fill:#000091;}.cls-2{fill:#e1000f;}.cls-3{fill:#9d9d9c;}.cls-4{fill:none;}</style></defs><title>Plan de travail 2</title><g id="vect"><path d="M84,209.58h16.15l15.25,26,15.25-26H146.8v63.15H134V227.8l-14.08,23.28h-9L96.81,227.8v44.93H84Z"/><path d="M164.39,209.58h12.82v63.15H164.39Z"/><path d="M194.89,209.58h16.42l28.24,45.2v-45.2h12.81v63.15H235.94L207.7,227.35v45.38H194.89Z"/><path d="M270.05,209.58h12.81v63.15H270.05Z"/><path d="M304.16,255.41c3.79,4.87,8.84,7.76,14,7.76s8.12-2.71,8.12-7.31c0-11.28-28.87-8.75-28.87-29.77,0-10,8.21-18.32,20.21-18.32,9.47,0,16.78,4.24,22.1,10.65l-9.38,8.39c-3.7-4.78-7.85-7.85-12.63-7.85-4.42,0-7.31,2.89-7.31,6.58,0,11.28,28.87,8.67,28.87,30.05-.18,11.73-9.38,19-20.93,19-10.65,0-17.86-3.88-23.46-10.56Z"/><path d="M345.75,209.58h51.79v11.63H378.05v51.52H365.24V221.21H345.75Z"/><path d="M408.82,209.58h36.81v10.91h-24v14.62H442V246H421.63v15.79h24v10.91H408.82ZM409.9,192h13.18l10.19,12.18H421.54Z"/><path d="M460.52,209.58h19.31c13.9,0,22.47,7.12,22.47,18.85,0,7.58-3.7,13.27-10.11,16.33l19.85,28H496.7L479.92,247.2h-6.59v25.53H460.52Zm12.81,10.91v15.79h7.22c5.42,0,8.57-2.89,8.57-8,0-4.78-3.15-7.76-8.57-7.76Z"/><path d="M520,209.58h36.81v10.91h-24v14.62h20.4V246h-20.4v15.79h24v10.91H520Z"/><path d="M84,300.65h24.81c20,0,33.57,14.52,33.57,31.57s-13.54,31.58-33.57,31.58H84Zm12.81,11.64v39.87H109c11.73,0,20.21-8.75,20.21-19.94s-8.48-19.93-20.21-19.93Z"/><path d="M154.74,300.65h36.81v10.91h-24v14.62h20.39V337.1H167.55v15.79h24V363.8H154.74Z"/><path d="M229.9,300.65h12.81v51.51h24V363.8H229.9Z"/><path d="M264,326.63l8.12-26h13l-10.47,26Z"/><path d="M295,300.65h36.82v10.91h-24v14.62h20.39V337.1H307.86v15.79h24V363.8H295Z"/><path d="M346.75,300.65h16.42l28.24,45.2v-45.2h12.81V363.8H387.8l-28.24-45.38V363.8H346.75Z"/><path d="M425.51,346.48c3.79,4.87,8.85,7.76,14,7.76s8.12-2.71,8.12-7.31c0-11.28-28.87-8.75-28.87-29.77,0-10,8.21-18.32,20.21-18.32,9.47,0,16.78,4.24,22.1,10.65l-9.38,8.39c-3.7-4.78-7.85-7.85-12.63-7.85-4.42,0-7.31,2.89-7.31,6.59,0,11.27,28.87,8.66,28.87,30-.18,11.73-9.38,18.95-20.93,18.95-10.65,0-17.86-3.88-23.46-10.56Z"/><path d="M474.06,300.65h36.81v10.91h-24v14.62h20.39V337.1H486.87v15.79h24V363.8H474.06Z"/><path d="M525.76,300.65h12.81V363.8H525.76Z"/><path d="M600,348.1V337.46H584V325.82h28.88v26.89c-5.87,7.85-15.7,12.9-27.52,12.9-20.48,0-34.47-15.34-34.47-33.39s13.63-33.38,33.57-33.38c11.45,0,20.84,5.14,26.61,12.81l-10.1,7.85a19.76,19.76,0,0,0-16.51-8.66c-11.91,0-20.4,9.29-20.4,21.38s8.94,21.39,21.3,21.39A21.07,21.07,0,0,0,600,348.1Z"/><path d="M627.08,300.65h16.43l28.24,45.2v-45.2h12.81V363.8H668.14L639.9,318.42V363.8H627.08Z"/><path d="M702.24,300.65h36.82v10.91h-24v14.62h20.39V337.1H715.06v15.79h24V363.8H702.24Z"/><path d="M754,300.65H770.1l15.24,26,15.25-26h16.15V363.8H803.93V318.87l-14.08,23.28h-9l-14.07-23.28V363.8H754Z"/><path d="M834.34,300.65h36.81v10.91h-24v14.62h20.39V337.1H847.15v15.79h24V363.8H834.34Z"/><path d="M886,300.65h16.42l28.24,45.2v-45.2h12.81V363.8H927.09l-28.24-45.38V363.8H886Z"/><path d="M954.7,300.65h51.79v11.64H987V363.8H974.19V312.29H954.7Z"/><path d="M87.61,437.55c3.79,4.87,8.84,7.76,14,7.76s8.12-2.71,8.12-7.31c0-11.28-28.88-8.75-28.88-29.77,0-10,8.21-18.32,20.21-18.32,9.48,0,16.79,4.24,22.11,10.65L113.78,409c-3.7-4.78-7.85-7.85-12.64-7.85-4.42,0-7.3,2.89-7.3,6.59,0,11.27,28.87,8.66,28.87,30-.18,11.73-9.39,18.95-20.93,18.95-10.65,0-17.87-3.88-23.46-10.56Z"/><path d="M172.69,391.72h12.82v38.43c0,16.6-9.75,26.53-25.63,26.53s-25.53-9.93-25.53-26.53V391.72h12.81v39.52c0,8.48,4.78,13.44,12.81,13.44,7.85,0,12.72-5,12.72-13.44Z"/><path d="M201.39,391.72h20.84c13.89,0,22.38,7.12,22.38,18.85s-8.49,18.77-22.38,18.77h-8v25.54H201.39Zm12.81,10.91v15.79h8.57c5.41,0,8.66-2.88,8.66-8,0-4.78-3.25-7.76-8.66-7.76Z"/><path d="M255.16,391.72H292v10.91H268v14.62h20.4v10.92H268V444h24v10.92H255.16Zm12.45-5.42,10.2-12.18H291L279.25,386.3Z"/><path d="M306.86,391.72h19.31c13.9,0,22.47,7.12,22.47,18.85,0,7.58-3.7,13.27-10.11,16.34l19.85,28H343l-16.78-25.54h-6.58v25.54H306.86Zm12.82,10.91v15.79h7.21c5.42,0,8.58-2.88,8.58-8,0-4.78-3.16-7.76-8.58-7.76Z"/><path d="M366.32,391.72h12.82v63.16H366.32Z"/><path d="M396.82,391.72h36.81v10.91h-24v14.62H430v10.92H409.63V444h24v10.92H396.82Z"/><path d="M485.42,391.72h12.82v38.43c0,16.6-9.75,26.53-25.63,26.53s-25.53-9.93-25.53-26.53V391.72h12.81v39.52c0,8.48,4.78,13.44,12.81,13.44,7.85,0,12.72-5,12.72-13.44Z"/><path d="M514.12,391.72h19.31c13.89,0,22.46,7.12,22.46,18.85,0,7.58-3.7,13.27-10.1,16.34l19.85,28H550.3l-16.79-25.54h-6.58v25.54H514.12Zm12.81,10.91v15.79h7.22c5.41,0,8.57-2.88,8.57-8,0-4.78-3.16-7.76-8.57-7.76Z"/><path d="M570,469.31l8.21-27h12.9l-10.47,27Z"/><path d="M84,482.79h24.81c20,0,33.57,14.52,33.57,31.58S128.84,546,108.81,546H84Zm12.81,11.64v39.88H109c11.73,0,20.21-8.76,20.21-19.94s-8.48-19.94-20.21-19.94Z"/><path d="M154.74,482.79h36.81v10.92h-24v14.61h20.39v10.92H167.55V535h24V546H154.74Z"/><path d="M229.9,482.79h12.81v51.52h24V546H229.9Z"/><path d="M296.67,482.79h16.78L337.36,546H323.73l-6-16.43H292.43L286.38,546H272.76Zm17.05,35.82-8.66-23.73-8.66,23.73Z"/><path d="M370.56,482.79h19.31c13.9,0,22.47,7.13,22.47,18.85,0,7.58-3.7,13.27-10.11,16.34l19.85,28H406.74L390,520.41h-6.58V546H370.56Zm12.82,10.92v15.78h7.21c5.42,0,8.57-2.88,8.57-8,0-4.78-3.15-7.75-8.57-7.75Z"/><path d="M430,482.79h36.82v10.92h-24v14.61h20.39v10.92H442.84V535h24V546H430Z"/><path d="M524.94,527.09l10.11,7.76c-5.78,7.85-15.16,12.9-26.62,12.9-19.94,0-33.56-15.34-33.56-33.38S488.49,481,508.43,481c11.46,0,20.84,5.15,26.62,12.81l-10.11,7.85A19.75,19.75,0,0,0,508.43,493c-11.91,0-20.39,9.3-20.39,21.39s8.48,21.38,20.39,21.38A19.75,19.75,0,0,0,524.94,527.09Z"/><path d="M546.15,482.79H559V508h31.85V482.79h12.81V546H590.81V519.6H559V546H546.15Z"/><path d="M621.31,482.79h36.81v10.92h-24v14.61h20.39v10.92H634.12V535h24V546H621.31Z"/><path d="M673,482.79h19.31c13.89,0,22.46,7.13,22.46,18.85,0,7.58-3.7,13.27-10.1,16.34l19.85,28H709.19l-16.78-25.54h-6.59V546H673Zm12.81,10.92v15.78H693c5.41,0,8.57-2.88,8.57-8,0-4.78-3.16-7.75-8.57-7.75Z"/><path d="M776.5,527.09l10.1,7.76c-5.77,7.85-15.15,12.9-26.61,12.9-19.94,0-33.57-15.34-33.57-33.38S740.05,481,760,481c11.46,0,20.84,5.15,26.61,12.81l-10.1,7.85A19.75,19.75,0,0,0,760,493c-11.91,0-20.39,9.3-20.39,21.39s8.48,21.38,20.39,21.38A19.75,19.75,0,0,0,776.5,527.09Z"/><path d="M797.7,482.79h12.82V508h31.85V482.79h12.81V546H842.37V519.6H810.52V546H797.7Z"/><path d="M872.86,482.79h36.82v10.92h-24v14.61h20.39v10.92H885.68V535h24V546H872.86Z"/><path d="M84,573.86h36.81v10.92h-24v14.61H117.2v10.92H96.81V626.1h24V637H84Z"/><path d="M130.56,573.86h51.79V585.5H162.86V637H150.05V585.5H130.56Z"/><path d="M217.09,573.86H241.9c20,0,33.56,14.53,33.56,31.58S261.93,637,241.9,637H217.09ZM229.9,585.5v39.88h12.18c11.73,0,20.21-8.75,20.21-19.94s-8.48-19.94-20.21-19.94Z"/><path d="M287.83,573.86h36.81v10.92h-24v14.61H321v10.92H300.64V626.1h24V637H287.83Z"/><path d="M363,573.86H375.8v51.52h24V637H363Z"/><path d="M397.09,599.84l8.12-26h13l-10.46,26Z"/><path d="M428.13,573.86h12.81V637H428.13Z"/><path d="M458.63,573.86h16.42l28.24,45.2v-45.2H516.1V637H499.68l-28.24-45.39V637H458.63Z"/><path d="M533.79,573.86h16.42l28.24,45.2v-45.2h12.81V637H574.84L546.6,591.63V637H533.79Z"/><path d="M670.57,605.44c0,18-13.62,33.38-33.47,33.38s-33.57-15.34-33.57-33.38,13.63-33.39,33.57-33.39S670.57,587.39,670.57,605.44Zm-13.17,0c0-12.09-8.48-21.39-20.3-21.39s-20.39,9.3-20.39,21.39,8.48,21.38,20.39,21.38S657.4,617.53,657.4,605.44Z"/><path d="M687.08,573.86l18.68,49.35,18.68-49.35h13.62L714.15,637H697.37l-23.91-63.16Z"/><path d="M758.18,573.86H775L798.87,637H785.25l-6-16.42H753.94l-6,16.42H734.27Zm17.06,35.82L766.57,586l-8.66,23.73Z"/><path d="M795.81,573.86H847.6V585.5H828.11V637H815.3V585.5H795.81Z"/><path d="M858.88,573.86h12.81V637H858.88Z"/><path d="M951,605.44c0,18-13.63,33.38-33.47,33.38S884,623.48,884,605.44s13.63-33.39,33.57-33.39S951,587.39,951,605.44Zm-13.17,0c0-12.09-8.48-21.39-20.3-21.39s-20.4,9.3-20.4,21.39,8.49,21.38,20.4,21.38S937.83,617.53,937.83,605.44Z"/><path d="M963.27,573.86h16.42l28.24,45.2v-45.2h12.82V637h-16.42l-28.25-45.39V637H963.27Z"/><path d="M289.52,811.7c1.71,0,3.19,1.29,2.41,4.58l-8,1.85c1.39-3.7,3.71-6.43,5.56-6.43m4.4,12.82h-1.58c-2,2.37-4.12,4.22-6.25,4.22s-3.29-1.3-3.29-4.22a17.48,17.48,0,0,1,.37-3.51L296,816.79c2.5-5.93-.51-8.52-4-8.52-6.06,0-13,10.14-13,19,0,4,1.9,6.16,4.86,6.16,3.47,0,7.08-3.38,10.05-8.94m-2.55-18.61,9-8.43v-1h-4.86l-5.56,9.4Zm-27.69,5.93h4.26l-6.76,18.47c-.6,1.58.23,3.15,1.85,3.15,3.84,0,10.05-3.8,12.23-9h-1.21c-1.71,1.8-5,4.21-7.82,4.72l6.2-17.36h6.35l.78-2.64H273.4l2.37-6.67h-2.46l-4.4,6.67-5.23.74Zm-5.74-.88a1.9,1.9,0,0,0-1.53-2.69c-3.7,0-8.1,3.34-9.86,8h1.2c1.2-1.71,3.24-3.61,5.14-3.93l-7.08,18.43a1.84,1.84,0,0,0,1.52,2.68c3.52,0,7.64-3.38,9.4-8h-1.2c-1.2,1.71-3.24,3.61-5.14,3.94Zm1.29-9.26a3.06,3.06,0,1,0-3.05-3.06,3,3,0,0,0,3.05,3.06M218.44,830c-.93,2.08.05,3.42,2.08,3.42a2.07,2.07,0,0,0,2.32-1.66l4.91-13C230,816,234.69,813,236.54,813c1.35,0,1.16,1.11.28,2.78l-7.55,14.49a2.13,2.13,0,0,0,1.86,3.15c3.7,0,8.1-3.33,9.86-8h-1.2c-1.21,1.71-3.25,3.61-5.14,3.94l6.48-13.11a10.53,10.53,0,0,0,1.25-4.49,3.19,3.19,0,0,0-3.43-3.52c-3.19,0-6.43,3.61-10.28,8.06V812.9c0-2.45-.78-4.63-3-4.63-1.39,0-2.73,1.21-4,2.92v.46c2.41-.14,3.47,3.47,1.76,7.27Zm-.09-16.12c.88-3,.41-5.65-1.9-5.65-2.73,0-3.43,2.08-6.21,8.06V812.9c0-2.45-.78-4.63-3-4.63-2.59,0-4.95,4-6.76,8h1.21c1.25-1.8,2.4-2.87,3.33-2.87,1.11,0,1.71,1.71,0,5.51L200,830c-.93,2.08.05,3.42,2.08,3.42a2.07,2.07,0,0,0,2.32-1.66l4.91-13c1.39-1.71,2.64-3.19,4.21-4.86Zm-28.44-2.22c1.72,0,3.2,1.29,2.41,4.58l-8,1.85c1.39-3.7,3.7-6.43,5.55-6.43m4.4,12.82h-1.57c-2,2.37-4.12,4.22-6.25,4.22s-3.29-1.3-3.29-4.22a17.48,17.48,0,0,1,.37-3.51l12.83-4.22c2.5-5.93-.51-8.52-4-8.52-6.07,0-13,10.14-13,19,0,4,1.9,6.16,4.86,6.16,3.48,0,7.09-3.38,10.05-8.94m-30.23-12.68h4.26l-6.77,18.47c-.6,1.58.24,3.15,1.86,3.15,3.84,0,10-3.8,12.22-9h-1.2c-1.72,1.8-5,4.21-7.83,4.72l6.21-17.36h6.34l.79-2.64H173.8l2.36-6.67h-2.45l-4.4,6.67-5.23.74Zm-23.39,14.4c0-5.7,6.34-13.43,9.91-13.43a7.83,7.83,0,0,1,2.18.28L149.07,823c-2.13,2.59-5.42,5.74-6.94,5.74-.88,0-1.44-.74-1.44-2.45m19.5-19-1.95-.14-2.18,2.13h-.46c-10.56,0-19.68,11.85-19.68,20.46a3.51,3.51,0,0,0,3.8,3.8c2.73,0,5.42-3.89,8.43-8.06l-.14,1.49c-.37,4.26.92,6.57,3.15,6.57,2.59,0,5-4,6.76-8h-1.21c-1.25,1.81-2.41,2.87-3.33,2.87s-1.67-1.76,0-5.51Zm-22.51,6.71c.88-3,.42-5.65-1.9-5.65-2.73,0-3.42,2.08-6.2,8.06V812.9c0-2.45-.79-4.63-3-4.63-2.6,0-5,4-6.76,8H121c1.25-1.8,2.41-2.87,3.33-2.87,1.12,0,1.72,1.71,0,5.51l-5,11.12c-.92,2.08,0,3.42,2.09,3.42,1.25,0,1.8-.32,2.31-1.66l4.91-13c1.39-1.71,2.64-3.19,4.22-4.86Zm-35.47,18.62.46-1.44c-6.16-1.16-6.94-1.16-4.49-7.87l2.5-6.9h6.81c3.06,0,3.1,1.25,2.64,4.58h1.76L116,809.75H114.2c-1.52,2.64-2.73,4.59-6.06,4.59h-6.72l3.57-9.77c1.11-3.11,1.76-3.75,5.93-3.75h3c4.31,0,4.82,1.15,4.82,5.51h1.71l1.43-7.6H96.28l-.46,1.44c5,1,5.42,1.48,3.1,7.87l-5.55,15.19c-2.32,6.34-3.29,6.85-9,7.87L84,832.54Z"/><path d="M227.52,753.81c1.71,0,3.19,1.3,2.4,4.59l-8,1.85c1.39-3.7,3.7-6.44,5.56-6.44m4.39,12.83h-1.57c-2,2.36-4.12,4.22-6.25,4.22s-3.29-1.3-3.29-4.22a17.58,17.58,0,0,1,.37-3.52L234,758.91c2.5-5.93-.51-8.52-4-8.52-6.07,0-13,10.14-13,19,0,4,1.9,6.16,4.87,6.16,3.47,0,7.08-3.38,10-8.94M229.37,748l9-8.43v-1h-4.87L228,748ZM201.68,754h4.26l-6.76,18.48c-.61,1.57.23,3.15,1.85,3.15,3.84,0,10.05-3.8,12.22-9h-1.2c-1.71,1.81-5,4.22-7.83,4.73L210.43,754h6.34l.79-2.64H211.4l2.36-6.66h-2.45l-4.4,6.66-5.23.74Zm-5.75-.88a1.89,1.89,0,0,0-1.52-2.68c-3.71,0-8.11,3.33-9.87,8h1.21c1.2-1.71,3.24-3.61,5.14-3.94l-7.09,18.43a1.85,1.85,0,0,0,1.53,2.69c3.52,0,7.64-3.38,9.4-8h-1.2c-1.21,1.71-3.24,3.61-5.14,3.93Zm1.3-9.26a3.05,3.05,0,0,0,3.06-3,3.09,3.09,0,0,0-3.06-3.06,3.05,3.05,0,0,0-3,3.06,3,3,0,0,0,3,3M172.6,771.5l12.92-33.85-.42-.51-8.1.93v1l1.57,1.21c1.44,1.11,1,2.17-.32,5.6l-10.1,26.58a2.13,2.13,0,0,0,1.85,3.15c3.71,0,7.64-3.34,9.4-8h-1.2a10.45,10.45,0,0,1-5.6,3.93m-24.55-3.15c0-5.69,6.35-13.42,9.91-13.42a8.24,8.24,0,0,1,2.18.27l-3.7,9.87c-2.13,2.59-5.42,5.74-6.95,5.74-.88,0-1.44-.74-1.44-2.46m19.5-19-2-.14-2.17,2.13H163c-10.55,0-19.68,11.86-19.68,20.47a3.51,3.51,0,0,0,3.8,3.8c2.73,0,5.42-3.89,8.43-8.06l-.14,1.48c-.37,4.26.93,6.58,3.15,6.58,2.59,0,4.95-4,6.76-8h-1.2c-1.25,1.8-2.41,2.87-3.34,2.87s-1.66-1.76,0-5.51Zm-47.14,30.75c0-2.45,2.36-4,5.74-5.33a41.23,41.23,0,0,0,5,1.9c3.52,1.16,4.86,1.62,4.86,2.69,0,2.27-3.84,4-9.07,4-4.4,0-6.53-.92-6.53-3.24m9.58-15c-1.52,0-2.13-1.29-2.13-2.78,0-4.12,2.23-10.18,5.7-10.18,1.53,0,2.13,1.29,2.13,2.78,0,4.12-2.22,10.18-5.7,10.18m10,12.69c0-3-2.64-4-6.94-5.32-3.71-1.12-5.37-1.44-5.37-2.64,0-1,.78-2.13,2.36-3a10.8,10.8,0,0,0,10-10.37,6.33,6.33,0,0,0-.51-2.55h5.14l.79-2.64h-8.15a6.3,6.3,0,0,0-3.29-.92,10.73,10.73,0,0,0-10.6,10.23,6,6,0,0,0,4.9,6.16c-3,1.34-4.67,2.92-4.67,4.77a2.91,2.91,0,0,0,1.25,2.5c-7,2-9.68,4.35-9.68,7.64s4.21,4.54,9.21,4.54c8.48,0,15.56-4.59,15.56-8.43M107.67,758c3.06,0,3.11,1.25,2.64,4.59h1.76l4.08-11.16h-1.76c-1.53,2.64-2.73,4.58-6.07,4.58h-6.71l3.38-9.31c1.11-3.1,1.76-3.7,5.93-3.7h3c4.31,0,4.82,1.16,4.82,5.46h1.71l1.43-7.59H96.28l-.46,1.43c5,1,5.42,1.49,3.1,7.88l-5.55,15.18c-2.32,6.35-3.29,6.86-9,7.88L84,774.65H112.4l5.09-8.06h-1.94c-3.24,3.06-7.32,6-13,6-7.54,0-6.85-.33-4.35-7.23l2.69-7.36Zm3.71-19.4,9-6.21v-1H115l-5,7.18Z"/><path d="M224.5,695.93c1.72,0,3.2,1.3,2.41,4.58l-8,1.86c1.39-3.71,3.7-6.44,5.55-6.44m4.4,12.83h-1.57c-2,2.36-4.12,4.21-6.25,4.21s-3.29-1.3-3.29-4.21a17.5,17.5,0,0,1,.37-3.52L231,701c2.5-5.92-.51-8.52-4-8.52-6.07,0-13,10.14-13,19,0,4,1.9,6.15,4.87,6.15,3.47,0,7.08-3.38,10-8.93m-2.54-18.62,9-8.43v-1h-4.87l-5.55,9.4Zm-26.54,5.93h3.38l-6.76,18.48c-.6,1.57.23,3.14,1.86,3.14,3.84,0,10-3.79,12.22-9h-1.2c-1.72,1.81-5,4.22-7.83,4.72l6.21-17.36H214l.79-2.64h-6.16l2.36-6.67h-2.45l-4.4,6.67-4.36.74Zm-3.33,2.08c.88-3,.42-5.65-1.9-5.65-2.73,0-3.43,2.09-6.2,8.06v-3.43c0-2.45-.79-4.63-3-4.63-2.6,0-5,4-6.76,8h1.2c1.25-1.8,2.41-2.87,3.33-2.87,1.11,0,1.72,1.72,0,5.51l-5,11.12c-.92,2.08,0,3.42,2.09,3.42,1.25,0,1.8-.32,2.31-1.66l4.91-13c1.39-1.72,2.64-3.2,4.21-4.87Zm-28.43-2.22c1.71,0,3.19,1.3,2.41,4.58l-8,1.86c1.39-3.71,3.71-6.44,5.56-6.44m4.4,12.83h-1.58c-2,2.36-4.12,4.21-6.25,4.21s-3.29-1.3-3.29-4.21a17.5,17.5,0,0,1,.37-3.52L174.54,701c2.5-5.92-.51-8.52-4-8.52-6.06,0-13,10.14-13,19,0,4,1.89,6.15,4.86,6.15,3.47,0,7.08-3.38,10.05-8.93M141,713.94c-1.25,0-3-1.15-3-2.17a24.94,24.94,0,0,1,1.25-3.57l2.08-5.51c2.23-2.64,5.61-5.46,7.5-5.46,1.16,0,2,.74,2,2.45,0,5.05-4.72,14.26-9.82,14.26m14.59-16.3c0-3.75-1.39-5.14-4-5.14-3.24,0-6.3,3.43-9.35,7.6L150,679.77l-.42-.51-8.1.93v1l1.57,1.2c1.44,1.11,1,2.27-.32,5.61l-8.34,21.48a24.65,24.65,0,0,0-1.34,3.94c0,2.22,3,4.3,5.74,4.3,6.3,0,16.81-11.34,16.81-20.05m-25.19-2.45a1.9,1.9,0,0,0-1.53-2.69c-3.7,0-8.1,3.34-9.86,8h1.2c1.21-1.71,3.25-3.61,5.14-3.93L118.28,715a1.84,1.84,0,0,0,1.53,2.68c3.52,0,7.64-3.38,9.4-8H128c-1.2,1.72-3.24,3.62-5.14,3.94Zm1.3-9.26a3.06,3.06,0,1,0-3.06-3.06,3.05,3.05,0,0,0,3.06,3.06m-18.66-3H96.19l-.46,1.44c5,1,5.42,1.48,3.1,7.87l-5.46,15.19c-2.32,6.34-3.29,6.85-9,7.87L84,716.77h25.65l5.56-9.91h-2c-3.15,3.47-6.85,7.82-12.55,7.82-4.3,0-4.81-.74-2.5-7.22l5.47-15.19c2.27-6.34,3.28-6.85,9-7.87Z"/><path class="cls-1" d="M179.13,157.76c.9-.9,1.81-1.87,2.71-2.84h0a52.74,52.74,0,0,1,5.29-5.39,17.61,17.61,0,0,1,1.72-1.38c.16-.16.16-.48.32-.64-.8.32-1.27,1-2.06,1.27-.16,0-.32-.16-.16-.31l1.69-1.27h-.11c-.16,0-.16-.16-.16-.32-2.06-.32-3.64,1.11-5.07,2.38-.31.16-.63-.16-.79-.16-2.38.79-4.12,2.85-6.5,3.8v-.31c-1,.31-1.87.89-2.85,1.11a17.27,17.27,0,0,1-4,.15,55.25,55.25,0,0,0-5.76,1l-.17,0a13.4,13.4,0,0,0-2.95,1.19l-.11.06-.23.28a3.81,3.81,0,0,1-1.09,1,15.46,15.46,0,0,0-2.62,2,.45.45,0,0,1-.26.09c-.85.81-1.69,1.64-2.55,2.44a.78.78,0,0,1-.49.06l0,0,.09-.15.41-.67c.15-.25.31-.49.47-.73s.43-.66.67-1a.14.14,0,0,0,0-.21.3.3,0,0,0-.21-.08,14.59,14.59,0,0,1,2.66-2v0c-.11,0-.26,0-.18-.16s.18-.29.27-.43,0-.1.05-.14l-.12-.13a6,6,0,0,0-.74.52c-.38.34-.68,1-1.26,1a1.93,1.93,0,0,1-.24,0,.38.38,0,0,1-.16-.06l0,0,0-.05,0,0,.08-.13a1,1,0,0,1,.08-.14l.06-.11a2,2,0,0,1,.11-.2s.05-.1.08-.14l.21-.35.09-.17c.06-.1.12-.19.17-.29a.18.18,0,0,0-.12-.28,3.83,3.83,0,0,1,1.09-1h-.05c.61-.3,1.21-.68,1.82-1l.26-.22a10.73,10.73,0,0,0-2.52,1.24,1.32,1.32,0,0,0-.27.15.4.4,0,0,1-.39-.15.19.19,0,0,1,0-.12c.16-.31.64-.47,1-.79.16,0,.32,0,.32.16,5.07-4,12-3,17.91-5.07l1.42-.95c.8-.32,1.43-1.11,2.38-1.59a6.9,6.9,0,0,0,2.69-3.64.57.57,0,0,0-.15-.32,24.38,24.38,0,0,1-7,5.23c-3.33,1.74-7,1.43-10.46,1.9.16-.31.48-.31.8-.31,0-.48.31-.64.63-.95h.48c.15,0,.15-.32.31-.32.32,0,.79-.16.64-.16-.48-.63-1.43.48-2.22,0,.31-.32.16-.79.47-1h.64a1.09,1.09,0,0,1,.31-.63c2.38-1.43,4.6-2.54,6.82-3.81-.48,0-.79.48-1.27.16.32,0,0-.48.32-.48,1.74-.47,3.17-1.42,4.91-2.06-.63,0-1.11.48-1.74,0,.31-.15.47-.47,1-.47v-.48c0-.15.16-.15.31-.15a.56.56,0,0,1-.31-.16c.16-.32.63-.16.95-.48-.16,0-.48,0-.48-.16a3.18,3.18,0,0,1,2.06-.95c-.16-.32-.63,0-.63-.32,0-.15.16-.15.32-.15h-.32c-.32-.16-.16-.48-.16-.64,1-1.11,1-2.53,1.43-3.8-.16,0-.32,0-.32-.16-1.58,1.74-4.12,2.38-6.5,3h-.79a3.18,3.18,0,0,1-2.69-.16,11,11,0,0,1-1.59-1.26,18.08,18.08,0,0,0-4-1.91,35.71,35.71,0,0,0-12.2-1.74c1.74-1,3.66-1,5.54-1.58,2.7-.8,5.23-1.75,8.09-1.59a5.3,5.3,0,0,0-1.59,0c-2.22-.16-4.44.48-6.81,1-1.59.32-3,.95-4.6,1.27-1,.32-1.43,1.27-2.53,1.11v-.48c1.58-1.9,3.48-3.8,6-4,2.85-.47,5.54,0,8.4.32a39.75,39.75,0,0,1,6,1.11c.79,0,.95,1.27,1.58,1.42,1,.32,1.91,0,2.86.64,0-.32-.16-.64,0-.95.63-.64,1.42.16,2.06-.16,1.26-.79-1.11-2.22-1.75-3.33a.56.56,0,0,1,.16-.32c1.27,1.11,2.22,2.38,3.8,3.17.8.32,2.7.8,2.38-.16-.79-1.74-2.38-3.16-3.64-4.75v-.63c-.32,0-.32-.16-.48-.32v-.63c-.63-.32-.47-1-.79-1.43-.48-.79-.16-1.9-.48-2.85a17.57,17.57,0,0,1-.63-2.7c-.48-2.69-1.11-5.07-1.43-7.6-.31-3,1.75-5.39,3.17-8.09a13.61,13.61,0,0,1,4.44-5.07,14,14,0,0,1,3-5.07,13.22,13.22,0,0,1,4.89-3.17,41.61,41.61,0,0,1,4.22-1.61H83.78v83.87h77c3-2.17,6-3.21,10.24-5.28C173,161.39,177.59,159.3,179.13,157.76Zm-24.37-11.35c-.32,0-.95.15-.79-.16.15-.8,1.26-.8,1.9-1.11.31-.16.79-.48,1.11-.32.31.48.79.32,1.11.63C157.13,146.41,155.87,145.93,154.76,146.41Zm-24.25-3.49a.56.56,0,0,1-.16-.32,48.47,48.47,0,0,0,5.07-8.08,22,22,0,0,0,5.39-4.44,30.85,30.85,0,0,1,8.88-7,6.09,6.09,0,0,1,4.12.16c-.48.63-1.27.47-1.91,1a.58.58,0,0,1-.47-.16.59.59,0,0,0,.16-.48c-1.59,1.75-3.81,2.54-5.07,4.6-1,1.58-1.59,3.65-3.65,4.12-.63.16.16-.47-.16-.32C137.8,135,134.31,138.64,130.51,142.92Zm13.15-10.46c-.15.32-.33.35-.47.63a1.25,1.25,0,0,1-.64.64c-.15,0-.31,0-.31-.16a1.93,1.93,0,0,1,1.27-1.43C143.66,132.14,143.66,132.3,143.66,132.46ZM151,156.2a1.33,1.33,0,0,1-.39.47c.2,0,.34.12.21.24a3.44,3.44,0,0,1-1.2.84l-.24,0-.59.56c-.19.16-1.06,0-.8-.19.41-.36.78-.75,1.17-1.11a5.64,5.64,0,0,0,.66-.63,2.26,2.26,0,0,1,.34-.35C150.31,156,151.15,155.89,151,156.2Zm-2.84-1.31,0,0c-.59.42-1.18.84-1.81,1.21s-1.38.69-2.09,1c0,0,0,0,0,0a.2.2,0,0,0-.26-.07,7.61,7.61,0,0,0-1.6,1.22l-.22.21h0l-.23.23,0,0h0a4.26,4.26,0,0,0-.34.37,1.1,1.1,0,0,1-.21.22c-.1.07-.37.07-.35-.12v0l-.28.15-.25.13a.17.17,0,0,0-.1,0l-.12,0-.57.49a8.44,8.44,0,0,0-.92,1v0l0,0,0,.06-.05.07,0,0-.11.16h0a.26.26,0,0,1-.13.06.86.86,0,0,1-.07-.1l0-.07c0-.08-.09-.17-.14-.26h0l0-.07.5-.57,0,0,.17-.21.26-.34.1-.12c.17-.23.34-.45.49-.67l0,0,.06-.1a4,4,0,0,0,.22-.34l.17-.31,0,0v0l0-.06a2.39,2.39,0,0,0,.15-.37v0a.42.42,0,0,0,0-.1c0-.06,0-.12,0-.18h0v0a1.55,1.55,0,0,0,0-.23.14.14,0,0,0,0-.11,6.22,6.22,0,0,1,.63-.85l-.07,0c-.23.15-.38.35-.59.51s-.49-.09-.28-.24.24-.22.36-.33,0,0,0,0a7.74,7.74,0,0,1,.81-.81c.18-.13.34-.24.49-.37l.07-.06a3.46,3.46,0,0,1,.35-.4l0,0c1.52-1.46,4.07-1.4,6.07-2.33.79-.32,1.74.16,2.54,0a2.32,2.32,0,0,1,1.42.32C150.8,153.2,149.48,154.08,148.18,154.89Zm3.25-11c-.16-.16.47,0,.63-.32H150.8c-.16,0-.16-.16-.16-.31-.8.15-1.75.47-2.54.63-1.11.32-2.06,1.11-3.33,1.43-1.74.63-3.17,2.06-5.07,2.69-.16,0-.16-.16-.16-.32.16-.47.8-.63,1.11-1.11,0-.15,0-.31-.16-.31,1.27-1.75,3-2.7,4.6-4.12v-.48c.48-.63,1.27-1,1.59-1.74a2.82,2.82,0,0,1,1.58-1.43c-.16-.16-.48-.16-.48-.47-.63,0-1.26.31-1.9-.16a2.3,2.3,0,0,1,1-.57.52.52,0,0,1-.36-.23c-.16-.31.3-.67.79-.79s1.43-.16,1.9-.63c-1.11-.16-2.38.32-3.49-.32a8.46,8.46,0,0,1,4-4.75c.15,0,.47,0,.47.16a1.54,1.54,0,0,1-1.27,1.58,17.14,17.14,0,0,1,3.81.95c-.16.32-.48.16-.64.16.8.48,1.75.16,2.54.79-.48.48-.95,0-1.43,0,4.92,1.43,10.15,2.54,14.27,5.71a44.24,44.24,0,0,1-10.94,3.33,3.5,3.5,0,0,1-1.27-.16c0,.16,0,.47-.16.47a2.58,2.58,0,0,0-1.58.32A1.93,1.93,0,0,1,151.43,143.87Z"/><path class="cls-2" d="M314.41,83.78H224.2a4,4,0,0,1,.85.4l2.28,1.21a7.49,7.49,0,0,1,3,2.54c.32.47.79,1.42.48,2.06-.32.79-.48,2.06-1.27,2.37a5.84,5.84,0,0,1-3.33.32,7.87,7.87,0,0,1-1.9-.32c2.38,1,4.59,2.06,6.18,4.28.16.32.79.48,1.43.48.15,0,.15.32.15.47-.31.32-.63.48-.47,1h.47c.8-.32.64-1.91,1.75-1.43a1.79,1.79,0,0,1,.63,2.38,16.55,16.55,0,0,1-1.9,1.58,1.34,1.34,0,0,0,0,1.11,5,5,0,0,1,.79,1.9c.48,1.11.64,2.38,1.11,3.49a22.38,22.38,0,0,1,1.11,7.13c0,1.27-.63,2.38-.16,3.64a13.25,13.25,0,0,0,1.75,3.33,25.55,25.55,0,0,1,1.74,2.54c1,1.58,2.69,3.17,1.9,5.07-.48,1.11-2.22,1-3.33,1.58-.95.8-.16,2.06.32,2.86.79,1.42-1,2.37-2.06,2.85.32.47.95.32,1.11.63.16.8,1,1.27.47,2.06-.63.95-2.53,1.43-1.58,2.86.63,1.11.22,2.34-.16,3.48a3.89,3.89,0,0,1-2.85,2.38,6.41,6.41,0,0,1-3,.16,2.28,2.28,0,0,0-.95-.32c-2.7-.32-5.39-1.11-8.09-1.11a9.14,9.14,0,0,0-2.22.64,13.63,13.63,0,0,0-1.91,1.69l0,0-.35.39-.2.24-.14.16a15.08,15.08,0,0,0-1.24,1.83.75.75,0,0,0-.07.12,2.53,2.53,0,0,0-.13.22,15.85,15.85,0,0,0-1.2,2.91c-1.07,3.63-.6,6.74.15,7.5.21.21,5.23,1.76,8.73,3.32a29.59,29.59,0,0,1,3.74,1.89h88.59Z"/><path class="cls-3" d="M229.56,114.38c.64.16,1.59.16,1.59.47-.32,1.27-2.22,1.59-3.17,2.86h-.48c-.47.31-.32,1.11-.79,1.11a2.29,2.29,0,0,0-1.43.15,2.71,2.71,0,0,0,2.38,1,.71.71,0,0,1,.48.64.48.48,0,0,0,.31-.16c.16,0,.32,0,.32.16v.63c-.48.64-1.27.32-1.9.48a7,7,0,0,0,3.64,0c1-.32,0-1.9.64-2.7-.32,0,0-.47-.32-.47.32-.32.63-.79.95-1a1.12,1.12,0,0,0,.95-.48c0-.31-.63-.47-.47-.79,1-.63,1.74-1.58,1.42-2.54-.16-.47-1.42-.47-2.22-.79a5.34,5.34,0,0,0-2.69.16,14,14,0,0,0-2.38.63,11.14,11.14,0,0,0-3,1.59,22.23,22.23,0,0,1,3.49-1A10.09,10.09,0,0,1,229.56,114.38Z"/></g><g id="zone"><rect class="cls-4" x="94.11" y="-94.11" width="916.32" height="1104.53" transform="translate(1010.43 -94.11) rotate(90)"/><rect class="cls-4" x="83.78" y="83.78" width="936.96" height="748.75"/></g></svg>