<?xml version="1.0" encoding="UTF-8" standalone="no"?>
<svg
   xmlns:dc="http://purl.org/dc/elements/1.1/"
   xmlns:cc="http://creativecommons.org/ns#"
   xmlns:rdf="http://www.w3.org/1999/02/22-rdf-syntax-ns#"
   xmlns:svg="http://www.w3.org/2000/svg"
   xmlns="http://www.w3.org/2000/svg"
   xmlns:sodipodi="http://sodipodi.sourceforge.net/DTD/sodipodi-0.dtd"
   xmlns:inkscape="http://www.inkscape.org/namespaces/inkscape"
   version="1.1"
   id="Layer_1"
   x="0px"
   y="0px"
   viewBox="0 0 122.88 120.01"
   style="enable-background:new 0 0 122.88 120.01"
   xml:space="preserve"
   sodipodi:docname="broom-cleaning.svg"
   inkscape:version="1.0.1 (3bc2e813f5, 2020-09-07)"><metadata
     id="metadata86"><rdf:RDF><cc:Work
         rdf:about=""><dc:format>image/svg+xml</dc:format><dc:type
           rdf:resource="http://purl.org/dc/dcmitype/StillImage" /></cc:Work></rdf:RDF></metadata><defs
     id="defs84" /><sodipodi:namedview
     pagecolor="#ffffff"
     bordercolor="#666666"
     borderopacity="1"
     objecttolerance="10"
     gridtolerance="10"
     guidetolerance="10"
     inkscape:pageopacity="0"
     inkscape:pageshadow="2"
     inkscape:window-width="1920"
     inkscape:window-height="1043"
     id="namedview82"
     showgrid="false"
     inkscape:zoom="7.0494125"
     inkscape:cx="79.639651"
     inkscape:cy="65.337612"
     inkscape:window-x="1920"
     inkscape:window-y="0"
     inkscape:window-maximized="1"
     inkscape:current-layer="Layer_1" /><style
     type="text/css"
     id="style75">.st0{fill-rule:evenodd;clip-rule:evenodd;}</style><g
     id="g79"
     style="fill:#ffffff"><path
       class="st0"
       d="M110.97,1.27L70.02,42.73l10.67,10.36l41.25-41.56C125.58,3.7,117.92-2.85,110.97,1.27L110.97,1.27z M54.04,46.81c0.4-0.31,0.81-0.58,1.22-0.81l0.15-0.08c2.35-1.28,4.81-1.24,7.39,0.53l7.17,6.98l0.11,0.11l6.6,6.42 c2.73,2.78,3.34,5.88,1.83,9.31l-19.35,50.75C24.02,112.99-0.34,87.94,0,49.73C19.23,55.35,37.75,57.19,54.04,46.81L54.04,46.81z"
       id="path77"
       style="fill:#ffffff" /></g></svg>
