<?xml version="1.0" encoding="utf-8"?>
<!-- Generator: Adobe Illustrator 24.2.1, SVG Export Plug-In . SVG Version: 6.00 Build 0)  -->
<svg version="1.1" id="Calque_1" xmlns="http://www.w3.org/2000/svg" xmlns:xlink="http://www.w3.org/1999/xlink" x="0px" y="0px"
	 viewBox="0 0 300 110" style="enable-background:new 0 0 300 110;" xml:space="preserve">
<style type="text/css">
	.st0{fill:#FFFFFF;}
</style>
<path class="st0" d="M75.1,63.7c2.9,3.7,6.5,6.9,11.3,6.9c3.1,0,4.6-1.6,4.6-3.7c0-7.3-24.8-4.4-24.8-23.2
	c0-10.2,8.6-17.6,20.4-17.6c8.5,0,16.6,4.1,20.7,9.4l-11.1,9.9c-2.6-3-5.8-5.9-9.6-5.9c-3,0-4.4,1.5-4.4,3.3
	c0,6.9,24.8,4.2,24.8,22.9C106.8,77.8,96.9,84,86.6,84S69.4,80,64,73.8L75.1,63.7z"/>
<path class="st0" d="M119,78.3c-1.9-2.2-2.9-4.9-3-7.8c0-4.4,1.5-7.8,5.5-10.9c-4.6-3.5-7.3-8.9-7.1-14.7c0-10.6,8-18.8,22-18.8
	c3.9-0.1,7.7,0.6,11.3,2.1H167v14.2h-8.4c0.1,0.8,0.1,1.7,0.1,2.5c0,10.8-7.9,19-22.3,19c-1,0-2,0-3-0.1c-0.6,0.5-1,1.3-1,2.1
	c0,1.9,1.2,2.6,2.9,2.6h12.2c13,0,20.9,7.7,20.9,17.9c0,12.3-11.4,22.1-28.5,22.1c-18.1,0-28-5.8-28-17.5
	C112,85.8,114.6,81.6,119,78.3z M139.8,95.2c8.6,0,12.1-3,12.1-7c0-3.2-2.1-5.3-6.4-5.3h-14.7c-2,1.2-3.2,3.3-3.1,5.7
	C127.8,92.6,131.3,95.2,139.8,95.2z M143.7,44.9c0-4.4-3-6.5-7.1-6.5s-7,2.2-7,6.5s2.9,6.6,7,6.6S143.7,49.3,143.7,44.9z"/>
<path class="st0" d="M277.5,28.2h17v29.4c0,16.1-9.6,26.4-26.1,26.4c-16.7,0-26-10.3-26-26.4V28.2h17v30.3c0,5.7,2.8,9.6,9,9.6
	c6.1,0,8.9-3.9,8.9-9.6L277.5,28.2z"/>
<path class="st0" d="M207,26.1c-2.4,0-4.9,0.3-7.2,0.9v15.7c1.5-0.5,3.1-0.7,4.8-0.7c7.4,0,12,5.2,12,13.1s-4.6,13.1-12,13.1
	c-1.6,0-3.2-0.2-4.8-0.7v15.7c2.3,0.6,4.8,0.9,7.2,0.9c17.1,0,27.1-13.3,27.1-29S224.1,26.1,207,26.1z"/>
<rect x="183.3" y="12.1" class="st0" width="4.1" height="69.8"/>
<rect x="175.1" y="2" class="st0" width="4" height="79.9"/>
<path class="st0" d="M195.7,2h-4.1v76.4c1.3,1.1,2.7,2.1,4.1,3V2z"/>
<path class="st0" d="M47.5,63.9C45,67,40.6,69,35.5,69c-1.7,0-3.5-0.2-5.2-0.6v15.3c1.8,0.3,3.5,0.4,5.3,0.4
	c10.3,0,18.7-4.1,23.9-10.8L47.5,63.9z"/>
<path class="st0" d="M32.9,39.8c6.3,0,9,4.5,9.3,8.1H30.3v11.9h27.2c0.7-2.9,1.1-6,1.1-9c0-14.6-10-24.7-25.2-24.7
	c-1,0-2.1,0-3.1,0.1v13.8C31.1,39.9,32,39.8,32.9,39.8z"/>
<path class="st0" d="M5.5,53.2V57c0.2,4.9,1.6,9.7,4.1,13.9v-32C7.1,43.3,5.7,48.2,5.5,53.2z"/>
<path class="st0" d="M13.8,22v54.1c1.3,1.2,2.6,2.3,4.1,3.3V22H13.8z"/>
<path class="st0" d="M22,15.2v66.4c1.3,0.6,2.7,1,4.1,1.4V15.2H22z"/>
</svg>
