<svg id="Calque_1" data-name="Calque 1" xmlns="http://www.w3.org/2000/svg" viewBox="0 0 300 109.19"><defs><style>.cls-1{fill:#000091;}</style></defs><path class="cls-1" d="M131.27,73.36h4.38v.69h-3.59v3.2h3.1v.68h-3.1v3.36h3.59V82h-4.38Z"/><path class="cls-1" d="M137.61,75.77h.72v.85a2.74,2.74,0,0,1,2.22-1.09A2.36,2.36,0,0,1,143,78.17V82h-.73V78.2a1.75,1.75,0,0,0-1.81-2,2.36,2.36,0,0,0-2.12,1.3V82h-.72Z"/><path class="cls-1" d="M147.79,75.53a3,3,0,0,1,2.37,1.13v-.89h.73V85h-.73V81.09a3,3,0,0,1-2.37,1.14,3.35,3.35,0,0,1,0-6.7Zm.06,6a2.64,2.64,0,0,0,2.31-1.3V77.51a2.63,2.63,0,0,0-2.31-1.29,2.67,2.67,0,0,0,0,5.32Z"/><path class="cls-1" d="M157.66,75.77h.72v3.56a2.67,2.67,0,1,1-5.32,0V75.77h.72v3.57a1.93,1.93,0,0,0,1.95,2.2c1.14,0,1.93-.79,1.93-2.2Z"/><path class="cls-1" d="M163.31,82.23A3.26,3.26,0,0,1,160,78.88a3.09,3.09,0,0,1,3.09-3.35,2.56,2.56,0,0,1,2.72,2.64,2.09,2.09,0,0,1-.05.52h-5v.15a2.56,2.56,0,0,0,2.6,2.72,2.48,2.48,0,0,0,2.06-1l.55.45A3.17,3.17,0,0,1,163.31,82.23Zm-2.52-4.12H165a1.93,1.93,0,0,0-2-1.94A2.21,2.21,0,0,0,160.79,78.11Zm.44-3.32,1.31-2.05h1l1.31,2.05h-.69l-1.15-1.66-1.13,1.66Z"/><path class="cls-1" d="M167.86,76.43H166.7v-.66h1.16V74.22h.74v1.55h2.33v.66H168.6V80c0,1.13.58,1.41,1.42,1.41a2.56,2.56,0,0,0,.91-.14V82a2.84,2.84,0,0,1-1,.15A1.84,1.84,0,0,1,167.86,80Z"/><path class="cls-1" d="M175.18,82.23a3.26,3.26,0,0,1-3.35-3.35,3.09,3.09,0,0,1,3.09-3.35,2.56,2.56,0,0,1,2.72,2.64,2.09,2.09,0,0,1,0,.52h-5v.15a2.56,2.56,0,0,0,2.6,2.72,2.46,2.46,0,0,0,2-1l.56.45A3.17,3.17,0,0,1,175.18,82.23Zm-2.53-4.12h4.25a1.94,1.94,0,0,0-2-1.94A2.23,2.23,0,0,0,172.65,78.11Z"/><path class="cls-1" d="M182.46,80.72a2.06,2.06,0,0,0,1.68.88,1.16,1.16,0,0,0,1.28-1.16c0-1.58-3.19-1-3.19-3.24a1.76,1.76,0,0,1,1.91-1.67,2.41,2.41,0,0,1,2,1l-.54.44a1.68,1.68,0,0,0-1.42-.8,1.08,1.08,0,0,0-1.21,1c0,1.61,3.19,1.12,3.19,3.22a1.84,1.84,0,0,1-2,1.81,2.73,2.73,0,0,1-2.23-1.06Z"/><path class="cls-1" d="M192.35,75.77h.71v3.56c0,1.85-1.05,2.9-2.64,2.9a2.58,2.58,0,0,1-2.67-2.9V75.77h.72v3.57a1.93,1.93,0,0,0,1.95,2.2c1.14,0,1.93-.79,1.93-2.2Z"/><path class="cls-1" d="M195.23,75.77H196v.89a2.3,2.3,0,0,1,1.92-1,2.16,2.16,0,0,1,.51.07v.71a1.93,1.93,0,0,0-.56-.09A2.07,2.07,0,0,0,196,77.53V82h-.73Z"/><path class="cls-1" d="M203.12,72.74h.73V82h-.73Z"/><path class="cls-1" d="M208.93,82.23a3.26,3.26,0,0,1-3.35-3.35,3.09,3.09,0,0,1,3.09-3.35,2.56,2.56,0,0,1,2.72,2.64,2.09,2.09,0,0,1,0,.52h-5v.15a2.56,2.56,0,0,0,2.6,2.72,2.48,2.48,0,0,0,2.06-1l.55.45A3.15,3.15,0,0,1,208.93,82.23Zm-2.52-4.12h4.25a2,2,0,0,0-2-1.94A2.21,2.21,0,0,0,206.41,78.11Z"/><path class="cls-1" d="M213,80.72a2.06,2.06,0,0,0,1.68.88A1.16,1.16,0,0,0,216,80.44c0-1.58-3.19-1-3.19-3.24a1.76,1.76,0,0,1,1.91-1.67,2.42,2.42,0,0,1,2,1l-.54.44a1.68,1.68,0,0,0-1.42-.8,1.08,1.08,0,0,0-1.21,1c0,1.61,3.19,1.12,3.19,3.22a1.84,1.84,0,0,1-2,1.81,2.73,2.73,0,0,1-2.23-1.06Z"/><path class="cls-1" d="M224.72,82.23a2.94,2.94,0,0,1-2.37-1.14V82h-.73V72.74h.73v3.92a2.93,2.93,0,0,1,2.37-1.13,3.35,3.35,0,0,1,0,6.7Zm-2.37-4.73v2.76a2.7,2.7,0,0,0,2.31,1.28,2.67,2.67,0,0,0,0-5.32A2.65,2.65,0,0,0,222.35,77.5Z"/><path class="cls-1" d="M229.48,73.26a.56.56,0,1,1,.56.56A.56.56,0,0,1,229.48,73.26Zm.19,2.51h.73V82h-.73Z"/><path class="cls-1" d="M235.82,82.23a3,3,0,0,1-2.38-1.14V82h-.73V72.74h.73v3.92a2.94,2.94,0,0,1,2.38-1.13,3.35,3.35,0,0,1,0,6.7Zm-2.38-4.73v2.76a2.7,2.7,0,0,0,2.31,1.28,2.67,2.67,0,0,0,0-5.32A2.65,2.65,0,0,0,233.44,77.5Z"/><path class="cls-1" d="M240.76,72.74h.73V82h-.73Z"/><path class="cls-1" d="M243.61,73.26a.56.56,0,0,1,.56-.54.55.55,0,1,1-.56.54Zm.19,2.51h.73V82h-.73Z"/><path class="cls-1" d="M252.93,78.88a3.33,3.33,0,1,1-3.34-3.35A3.3,3.3,0,0,1,252.93,78.88Zm-.78,0a2.57,2.57,0,1,0-2.55,2.66A2.59,2.59,0,0,0,252.15,78.88Z"/><path class="cls-1" d="M254.86,76.43h-1.17v-.66h1.17V74.22h.74v1.55h2.32v.66H255.6V80c0,1.13.58,1.41,1.41,1.41a2.48,2.48,0,0,0,.91-.14V82a2.84,2.84,0,0,1-1,.15A1.83,1.83,0,0,1,254.86,80Z"/><path class="cls-1" d="M259.52,72.74h.73v3.9a2.67,2.67,0,0,1,2.22-1.11,2.36,2.36,0,0,1,2.43,2.64V82h-.72V78.2a1.75,1.75,0,0,0-1.81-2,2.37,2.37,0,0,0-2.12,1.3V82h-.73Z"/><path class="cls-1" d="M269.85,82.23a3.26,3.26,0,0,1-3.35-3.35,3.09,3.09,0,0,1,3.09-3.35,2.57,2.57,0,0,1,2.73,2.64,2.7,2.7,0,0,1-.05.52h-5v.15a2.56,2.56,0,0,0,2.6,2.72,2.48,2.48,0,0,0,2.06-1l.55.45A3.14,3.14,0,0,1,269.85,82.23Zm-2.52-4.12h4.25a2,2,0,0,0-2-1.94A2.21,2.21,0,0,0,267.33,78.11Zm.47-5.37h.85l1.29,2.05h-.73Z"/><path class="cls-1" d="M276.75,75.53a3,3,0,0,1,2.37,1.13v-.89h.73V85h-.73V81.09a3,3,0,0,1-2.37,1.14,3.35,3.35,0,0,1,0-6.7Zm.06,6a2.64,2.64,0,0,0,2.31-1.3V77.51a2.64,2.64,0,0,0-2.31-1.29,2.67,2.67,0,0,0,0,5.32Z"/><path class="cls-1" d="M286.62,75.77h.71v3.56c0,1.85-1.06,2.9-2.64,2.9a2.59,2.59,0,0,1-2.68-2.9V75.77h.73v3.57a1.93,1.93,0,0,0,1.95,2.2c1.14,0,1.93-.79,1.93-2.2Z"/><path class="cls-1" d="M292.27,82.23a3.26,3.26,0,0,1-3.35-3.35A3.09,3.09,0,0,1,292,75.53a2.56,2.56,0,0,1,2.72,2.64,2.09,2.09,0,0,1-.05.52h-5v.15a2.56,2.56,0,0,0,2.6,2.72,2.5,2.5,0,0,0,2.06-1l.55.45A3.17,3.17,0,0,1,292.27,82.23Zm-2.52-4.12H294a1.93,1.93,0,0,0-2-1.94A2.21,2.21,0,0,0,289.75,78.11Z"/><path class="cls-1" d="M296.33,80.72a2.06,2.06,0,0,0,1.68.88,1.16,1.16,0,0,0,1.28-1.16c0-1.58-3.19-1-3.19-3.24A1.76,1.76,0,0,1,298,75.53a2.44,2.44,0,0,1,2,1l-.55.44a1.67,1.67,0,0,0-1.41-.8,1.08,1.08,0,0,0-1.21,1c0,1.61,3.19,1.12,3.19,3.22a1.84,1.84,0,0,1-2,1.81,2.72,2.72,0,0,1-2.23-1.06Z"/><path class="cls-1" d="M135.52,89.26h.71v3.55a2.67,2.67,0,1,1-5.32,0V89.26h.73v3.57c0,1.4.77,2.19,1.94,2.19a1.92,1.92,0,0,0,1.94-2.19Z"/><path class="cls-1" d="M138.39,89.26h.73v.85a2.69,2.69,0,0,1,2.22-1.1,2.38,2.38,0,0,1,2.44,2.65v3.8h-.73V91.68a1.75,1.75,0,0,0-1.81-2,2.35,2.35,0,0,0-2.12,1.3v4.46h-.73Z"/><path class="cls-1" d="M145.76,86.74a.56.56,0,1,1,.56.56A.56.56,0,0,1,145.76,86.74Zm.19,2.52h.73v6.2H146Z"/><path class="cls-1" d="M148.81,89.26l2.23,5.5,2.21-5.5H154l-2.52,6.2h-1L148,89.26Z"/><path class="cls-1" d="M158.05,95.71a3.26,3.26,0,0,1-3.34-3.35A3.09,3.09,0,0,1,157.8,89a2.65,2.65,0,0,1,2.67,3.16h-5v.15A2.56,2.56,0,0,0,158.05,95a2.46,2.46,0,0,0,2.06-1l.55.44A3.11,3.11,0,0,1,158.05,95.71Zm-2.52-4.11h4.25a2,2,0,0,0-2-1.95A2.23,2.23,0,0,0,155.53,91.6Z"/><path class="cls-1" d="M162.34,89.26h.72v.88a2.33,2.33,0,0,1,1.92-1,1.77,1.77,0,0,1,.52.08v.7a1.93,1.93,0,0,0-.56-.09,2.08,2.08,0,0,0-1.88,1.2v4.44h-.72Z"/><path class="cls-1" d="M166.83,94.21a2.05,2.05,0,0,0,1.68.87,1.16,1.16,0,0,0,1.28-1.16c0-1.57-3.19-1-3.19-3.24A1.76,1.76,0,0,1,168.51,89a2.45,2.45,0,0,1,2,1l-.55.43a1.67,1.67,0,0,0-1.41-.8,1.08,1.08,0,0,0-1.21,1c0,1.62,3.19,1.12,3.19,3.22a1.84,1.84,0,0,1-2,1.81,2.72,2.72,0,0,1-2.23-1.06Z"/><path class="cls-1" d="M172.06,86.74a.56.56,0,0,1,.57-.54.55.55,0,1,1,0,1.1A.56.56,0,0,1,172.06,86.74Zm.2,2.52H173v6.2h-.73Z"/><path class="cls-1" d="M175.62,89.91h-1.17v-.65h1.17V87.7h.74v1.56h2.33v.65h-2.33V93.5c0,1.14.58,1.41,1.41,1.41a2.58,2.58,0,0,0,.92-.14v.67a2.92,2.92,0,0,1-1,.14,1.83,1.83,0,0,1-2.08-2.08Z"/><path class="cls-1" d="M179.92,94c0-.94.71-1.58,2-1.8l2.21-.37v-.58a1.5,1.5,0,0,0-1.67-1.54,2.22,2.22,0,0,0-1.87,1l-.56-.43A3,3,0,0,1,182.5,89a2.14,2.14,0,0,1,2.37,2.2v4.25h-.72v-.9a2.75,2.75,0,0,1-2.23,1.07C180.72,95.63,179.92,95,179.92,94ZM182,95a2.41,2.41,0,0,0,2.14-1.23V92.36l-2.05.34c-1,.18-1.45.63-1.45,1.25S181.17,95,182,95Z"/><path class="cls-1" d="M186.87,86.74a.56.56,0,0,1,.57-.54.55.55,0,1,1,0,1.1A.56.56,0,0,1,186.87,86.74Zm.2,2.52h.72v6.2h-.72Z"/><path class="cls-1" d="M190.11,89.26h.73v.88a2.3,2.3,0,0,1,1.92-1,1.75,1.75,0,0,1,.51.08v.7a1.93,1.93,0,0,0-.56-.09,2.06,2.06,0,0,0-1.87,1.2v4.44h-.73Z"/><path class="cls-1" d="M197.14,95.71a3.26,3.26,0,0,1-3.35-3.35A3.09,3.09,0,0,1,196.88,89a2.57,2.57,0,0,1,2.72,2.65,2,2,0,0,1,0,.51h-5v.15a2.56,2.56,0,0,0,2.6,2.72,2.46,2.46,0,0,0,2.05-1l.56.44A3.14,3.14,0,0,1,197.14,95.71Zm-2.53-4.11h4.25a1.93,1.93,0,0,0-2-1.95A2.24,2.24,0,0,0,194.61,91.6Z"/><path class="cls-1" d="M201.2,94.21a2,2,0,0,0,1.67.87,1.17,1.17,0,0,0,1.29-1.16c0-1.57-3.19-1-3.19-3.24a1.76,1.76,0,0,1,1.9-1.67,2.42,2.42,0,0,1,2,1l-.54.43a1.67,1.67,0,0,0-1.41-.8,1.08,1.08,0,0,0-1.21,1c0,1.62,3.19,1.12,3.19,3.22a1.84,1.84,0,0,1-2,1.81,2.72,2.72,0,0,1-2.23-1.06Z"/><path class="cls-1" d="M212.6,95.71a3.26,3.26,0,0,1-3.35-3.35A3.09,3.09,0,0,1,212.34,89a2.57,2.57,0,0,1,2.72,2.65,2,2,0,0,1-.05.51h-5v.15A2.56,2.56,0,0,0,212.6,95a2.49,2.49,0,0,0,2.06-1l.55.44A3.14,3.14,0,0,1,212.6,95.71Zm-2.52-4.11h4.24a1.93,1.93,0,0,0-2-1.95A2.22,2.22,0,0,0,210.08,91.6Z"/><path class="cls-1" d="M217.15,89.91H216v-.65h1.17V87.7h.74v1.56h2.33v.65h-2.33V93.5c0,1.14.58,1.41,1.42,1.41a2.56,2.56,0,0,0,.91-.14v.67a2.88,2.88,0,0,1-1,.14,1.83,1.83,0,0,1-2.08-2.08Z"/><path class="cls-1" d="M225,86.23h.73v9.23H225Z"/><path class="cls-1" d="M230.83,95.71a3.26,3.26,0,0,1-3.35-3.35A3.09,3.09,0,0,1,230.57,89a2.57,2.57,0,0,1,2.72,2.65,2,2,0,0,1,0,.51h-5v.15a2.56,2.56,0,0,0,2.6,2.72,2.49,2.49,0,0,0,2.06-1l.55.44A3.14,3.14,0,0,1,230.83,95.71Zm-2.52-4.11h4.24a1.93,1.93,0,0,0-2-1.95A2.22,2.22,0,0,0,228.31,91.6Z"/><path class="cls-1" d="M234.89,94.21a2.05,2.05,0,0,0,1.68.87,1.16,1.16,0,0,0,1.28-1.16c0-1.57-3.19-1-3.19-3.24A1.76,1.76,0,0,1,236.57,89a2.43,2.43,0,0,1,2,1l-.55.43a1.65,1.65,0,0,0-1.41-.8,1.08,1.08,0,0,0-1.21,1c0,1.62,3.19,1.12,3.19,3.22a1.84,1.84,0,0,1-2,1.81,2.73,2.73,0,0,1-2.23-1.06Z"/><path class="cls-1" d="M243.32,94.21a2.05,2.05,0,0,0,1.68.87,1.16,1.16,0,0,0,1.28-1.16c0-1.57-3.19-1-3.19-3.24A1.76,1.76,0,0,1,245,89a2.42,2.42,0,0,1,2,1l-.54.43a1.68,1.68,0,0,0-1.42-.8,1.08,1.08,0,0,0-1.21,1c0,1.62,3.19,1.12,3.19,3.22a1.84,1.84,0,0,1-2,1.81,2.73,2.73,0,0,1-2.23-1.06Z"/><path class="cls-1" d="M251.43,95.71a3.26,3.26,0,0,1-3.35-3.35A3.09,3.09,0,0,1,251.17,89a2.57,2.57,0,0,1,2.72,2.65,2,2,0,0,1,0,.51h-5v.15a2.56,2.56,0,0,0,2.6,2.72,2.46,2.46,0,0,0,2-1l.56.44A3.14,3.14,0,0,1,251.43,95.71ZM248.9,91.6h4.25a2,2,0,0,0-2-1.95A2.23,2.23,0,0,0,248.9,91.6Z"/><path class="cls-1" d="M255.71,89.26h.72v.88a2.33,2.33,0,0,1,1.93-1,1.75,1.75,0,0,1,.51.08v.7a1.93,1.93,0,0,0-.56-.09,2.08,2.08,0,0,0-1.88,1.2v4.44h-.72Z"/><path class="cls-1" d="M260.39,89.26l2.22,5.5,2.22-5.5h.79l-2.53,6.2h-1l-2.52-6.2Z"/><path class="cls-1" d="M266.77,86.74a.56.56,0,0,1,.57-.54.55.55,0,1,1,0,1.1A.56.56,0,0,1,266.77,86.74Zm.2,2.52h.73v6.2H267Z"/><path class="cls-1" d="M274.79,94l.58.46a3.19,3.19,0,0,1-2.6,1.27,3.35,3.35,0,0,1,0-6.7,3.16,3.16,0,0,1,2.6,1.27l-.58.45a2.44,2.44,0,0,0-2-1,2.66,2.66,0,0,0,0,5.32A2.41,2.41,0,0,0,274.79,94Z"/><path class="cls-1" d="M279.39,95.71A3.26,3.26,0,0,1,276,92.36,3.1,3.1,0,0,1,279.13,89a2.65,2.65,0,0,1,2.68,3.16h-5v.15A2.56,2.56,0,0,0,279.39,95a2.47,2.47,0,0,0,2.06-1l.55.44A3.11,3.11,0,0,1,279.39,95.71Zm-2.52-4.11h4.25a2,2,0,0,0-2-1.95A2.22,2.22,0,0,0,276.87,91.6Z"/><path class="cls-1" d="M283.45,94.21a2.05,2.05,0,0,0,1.68.87,1.16,1.16,0,0,0,1.28-1.16c0-1.57-3.19-1-3.19-3.24A1.76,1.76,0,0,1,285.13,89a2.42,2.42,0,0,1,2,1l-.54.43a1.68,1.68,0,0,0-1.42-.8,1.07,1.07,0,0,0-1.2,1c0,1.62,3.18,1.12,3.18,3.22a1.84,1.84,0,0,1-2,1.81,2.73,2.73,0,0,1-2.23-1.06Z"/><path class="cls-1" d="M133.68,102.49a3,3,0,0,1,2.38,1.14V99.71h.72v9.23h-.72v-.88a3,3,0,0,1-2.38,1.13,3.35,3.35,0,0,1,0-6.7Zm.06,6a2.64,2.64,0,0,0,2.32-1.29v-2.74a2.67,2.67,0,0,0-2.32-1.29,2.67,2.67,0,0,0,0,5.32Z"/><path class="cls-1" d="M145.15,105.84a3.33,3.33,0,1,1-3.33-3.35A3.29,3.29,0,0,1,145.15,105.84Zm-.77,0a2.57,2.57,0,1,0-2.55,2.66A2.59,2.59,0,0,0,144.38,105.84Z"/><path class="cls-1" d="M151.72,107.47l.57.45a3.13,3.13,0,0,1-2.59,1.27,3.35,3.35,0,0,1,0-6.7,3.15,3.15,0,0,1,2.59,1.27l-.57.46a2.44,2.44,0,0,0-2-1,2.66,2.66,0,0,0,0,5.32A2.44,2.44,0,0,0,151.72,107.47Z"/><path class="cls-1" d="M158.25,102.74H159v3.56a2.67,2.67,0,1,1-5.32,0v-3.56h.72v3.57a2,2,0,1,0,3.88,0Z"/><path class="cls-1" d="M161.13,102.74h.73v.82a2.54,2.54,0,0,1,2.09-1.07,2.13,2.13,0,0,1,2.09,1.33,2.62,2.62,0,0,1,2.31-1.33,2.25,2.25,0,0,1,2.31,2.53v3.92H170V105a1.64,1.64,0,0,0-1.7-1.86,2.25,2.25,0,0,0-2,1.33,4.06,4.06,0,0,1,0,.51v3.92h-.73V105a1.64,1.64,0,0,0-1.69-1.86,2.19,2.19,0,0,0-2,1.31v4.45h-.73Z"/><path class="cls-1" d="M175.61,109.19a3.26,3.26,0,0,1-3.35-3.35,3.09,3.09,0,0,1,3.09-3.35,2.57,2.57,0,0,1,2.72,2.65,2.14,2.14,0,0,1,0,.52h-5v.14a2.57,2.57,0,0,0,2.6,2.73,2.46,2.46,0,0,0,2-1l.56.44A3.14,3.14,0,0,1,175.61,109.19Zm-2.53-4.11h4.25a1.93,1.93,0,0,0-2-2A2.24,2.24,0,0,0,173.08,105.08Z"/><path class="cls-1" d="M179.89,102.74h.73v.85a2.69,2.69,0,0,1,2.21-1.1,2.37,2.37,0,0,1,2.44,2.65v3.8h-.72v-3.78a1.75,1.75,0,0,0-1.81-2,2.36,2.36,0,0,0-2.12,1.31v4.45h-.73Z"/><path class="cls-1" d="M187.77,103.39H186.6v-.65h1.17v-1.55h.74v1.55h2.33v.65h-2.33V107c0,1.13.58,1.4,1.41,1.4a2.58,2.58,0,0,0,.92-.14v.67a3,3,0,0,1-1,.15,1.83,1.83,0,0,1-2.08-2.08Z"/><path class="cls-1" d="M192.07,107.44c0-.93.71-1.57,2-1.8l2.21-.36v-.58a1.5,1.5,0,0,0-1.67-1.54,2.19,2.19,0,0,0-1.87,1l-.56-.44a3,3,0,0,1,2.45-1.18A2.14,2.14,0,0,1,197,104.7v4.24h-.72v-.89a2.75,2.75,0,0,1-2.23,1.07C192.87,109.12,192.07,108.46,192.07,107.44Zm2.09,1a2.41,2.41,0,0,0,2.14-1.23v-1.42l-2.05.35c-1,.17-1.45.62-1.45,1.24S193.32,108.49,194.16,108.49Z"/><path class="cls-1" d="M199,100.23a.56.56,0,0,1,.57-.54.55.55,0,1,1,0,1.09A.55.55,0,0,1,199,100.23Zm.2,2.51h.72v6.2h-.72Z"/><path class="cls-1" d="M202.26,102.74H203v.89a2.3,2.3,0,0,1,1.92-1,1.75,1.75,0,0,1,.51.07v.7a1.94,1.94,0,0,0-.56-.08A2,2,0,0,0,203,104.5v4.44h-.73Z"/><path class="cls-1" d="M209.29,109.19a3.26,3.26,0,0,1-3.35-3.35,3.09,3.09,0,0,1,3.09-3.35,2.57,2.57,0,0,1,2.72,2.65,2.14,2.14,0,0,1-.05.52h-5v.14a2.57,2.57,0,0,0,2.6,2.73,2.46,2.46,0,0,0,2.05-1l.56.44A3.14,3.14,0,0,1,209.29,109.19Zm-2.53-4.11H211a1.93,1.93,0,0,0-2-2A2.24,2.24,0,0,0,206.76,105.08Z"/><path class="cls-1" d="M213.35,107.69a2,2,0,0,0,1.67.87,1.16,1.16,0,0,0,1.29-1.15c0-1.58-3.19-1-3.19-3.24a1.76,1.76,0,0,1,1.9-1.68,2.42,2.42,0,0,1,2,1l-.54.43a1.67,1.67,0,0,0-1.41-.8,1.08,1.08,0,0,0-1.21,1c0,1.61,3.19,1.12,3.19,3.21a1.84,1.84,0,0,1-2,1.81,2.72,2.72,0,0,1-2.23-1.06Z"/><path class="cls-1" d="M224.6,102.49a3,3,0,0,1,2.38,1.14V99.71h.72v9.23H227v-.88a3,3,0,0,1-2.38,1.13,3.35,3.35,0,0,1,0-6.7Zm.06,6a2.64,2.64,0,0,0,2.32-1.29v-2.74a2.67,2.67,0,0,0-2.32-1.29,2.67,2.67,0,0,0,0,5.32Z"/><path class="cls-1" d="M232.76,109.19a3.26,3.26,0,0,1-3.35-3.35,3.1,3.1,0,0,1,3.09-3.35,2.57,2.57,0,0,1,2.73,2.65,2.78,2.78,0,0,1,0,.52h-5v.14a2.57,2.57,0,0,0,2.59,2.73,2.48,2.48,0,0,0,2.06-1l.55.44A3.11,3.11,0,0,1,232.76,109.19Zm-2.52-4.11h4.25a2,2,0,0,0-2-2A2.22,2.22,0,0,0,230.24,105.08Z"/><path class="cls-1" d="M240.25,99.71H241v9.23h-.72Z"/><path class="cls-1" d="M242.84,103.48l1-3.15h.84l-1.17,3.15Z"/><path class="cls-1" d="M246.72,100.33h4.39V101h-3.6v3.21h3.1v.67h-3.1v3.36h3.6v.69h-4.39Z"/><path class="cls-1" d="M253.39,107.23a2.73,2.73,0,0,0,2.2,1.23,1.6,1.6,0,0,0,1.77-1.61c0-2.17-4.19-1.75-4.19-4.55a2.28,2.28,0,0,1,2.42-2.22,2.94,2.94,0,0,1,2.54,1.38l-.6.52a2.25,2.25,0,0,0-1.93-1.19A1.49,1.49,0,0,0,254,102.3c0,2.17,4.19,1.71,4.19,4.53a2.35,2.35,0,0,1-2.55,2.35,3.4,3.4,0,0,1-2.82-1.42Z"/><path class="cls-1" d="M260.48,100.33h2.07c1.65,0,2.66.92,2.66,2.33a2.15,2.15,0,0,1-1.47,2.13l2.8,4.15h-.93L263,105l-.42,0h-1.28v4h-.79Zm.79.68v3.28h1.31a1.65,1.65,0,1,0,0-3.28Z"/><path class="cls-1" d="M53.87,47.75c2.23,2.89,5,5.36,8.74,5.36,2.39,0,3.55-1.23,3.55-2.88,0-5.69-19.22-3.38-19.22-18,0-7.92,6.68-13.61,15.84-13.61,6.6,0,12.86,3.22,16,7.26L70.2,33.57c-2-2.31-4.45-4.54-7.42-4.54-2.31,0-3.38,1.16-3.38,2.56,0,5.36,19.21,3.22,19.21,17.73-.16,9.4-7.83,14.18-15.83,14.18a21.8,21.8,0,0,1-17.49-7.91Z"/><path class="cls-1" d="M87.93,59.05a9.63,9.63,0,0,1-2.31-6,9.74,9.74,0,0,1,4.29-8.41,13.8,13.8,0,0,1-5.53-11.38c0-8.25,6.19-14.6,17.07-14.6a21.49,21.49,0,0,1,8.74,1.65h14.93v11H118.6a14.58,14.58,0,0,1,.09,2c0,8.33-6.11,14.68-17.24,14.68a21.53,21.53,0,0,1-2.31-.08,2.33,2.33,0,0,0-.74,1.64c0,1.49.91,2,2.23,2h9.48c10.06,0,16.16,5.94,16.16,13.86,0,9.56-8.82,17.15-22.1,17.15-14,0-21.69-4.45-21.69-13.52C82.48,64.91,84.46,61.61,87.93,59.05ZM104,72.16c6.68,0,9.4-2.31,9.4-5.44,0-2.47-1.65-4.12-5-4.12H97.08A4.81,4.81,0,0,0,94.69,67C94.69,70.18,97.41,72.16,104,72.16Zm3-38.92c0-3.38-2.31-5-5.53-5s-5.44,1.73-5.44,5,2.23,5.11,5.44,5.11S107.06,36.62,107.06,33.24Z"/><path class="cls-1" d="M210.63,20.29h13.19V43.05c0,12.45-7.42,20.45-20.2,20.45-13,0-20.12-8-20.12-20.45V20.29h13.19v23.5c0,4.38,2.15,7.43,7,7.43,4.7,0,6.93-3,6.93-7.43Z"/><path class="cls-1" d="M156,18.64a21,21,0,0,0-5.58.7V31.47a12.73,12.73,0,0,1,3.68-.54c5.78,0,9.32,4,9.32,10.14s-3.54,10.15-9.32,10.15a12.12,12.12,0,0,1-3.68-.57V62.8a20.61,20.61,0,0,0,5.58.7c13.28,0,21-10.3,21-22.43S169.32,18.64,156,18.64Z"/><rect class="cls-1" x="137.69" y="7.84" width="3.18" height="54.02"/><rect class="cls-1" x="131.38" width="3.09" height="61.85"/><path class="cls-1" d="M147.27,0h-3.19V59.18a19.76,19.76,0,0,0,3.19,2.33Z"/><path class="cls-1" d="M32.52,47.91a11.89,11.89,0,0,1-9.32,4,15.37,15.37,0,0,1-4-.47V63.28a30.09,30.09,0,0,0,4.11.3c8,0,14.51-3.14,18.47-8.33Z"/><path class="cls-1" d="M21.22,29.27c4.86,0,7,3.46,7.17,6.27H19.17v9.23h21.1a28.35,28.35,0,0,0,.82-6.92c0-11.3-7.75-19.14-19.54-19.14-.82,0-1.6.05-2.38.11V29.48A10.94,10.94,0,0,1,21.22,29.27Z"/><path class="cls-1" d="M0,39.65v2.89A23.24,23.24,0,0,0,3.18,53.35V28.57A24.31,24.31,0,0,0,0,39.65Z"/><path class="cls-1" d="M6.4,15.45V57.38a20.32,20.32,0,0,0,3.18,2.53V15.45Z"/><path class="cls-1" d="M12.79,10.18V61.59A23.87,23.87,0,0,0,16,62.66V10.18Z"/></svg>